<svg data-v-423bf9ae="" xmlns="http://www.w3.org/2000/svg" viewBox="0 0 592 101" class="iconLeft"><!----><!----><!----><g data-v-423bf9ae="" id="3902b937-0fc6-4a9e-96b4-cec78b35f38d" fill="white" transform="matrix(6.6006598472595215,0,0,6.6006598472595215,99.99080657958984,-6.342869758605957)"><path d="M10.15 12.77Q10.19 12.77 10.19 12.85Q10.19 12.94 10.15 12.94L10.15 12.94Q9.70 12.94 9.44 12.92L9.44 12.92L8.43 12.91L7.32 12.92Q7.08 12.94 6.66 12.94L6.66 12.94Q6.62 12.94 6.62 12.85Q6.62 12.77 6.66 12.77L6.66 12.77Q7.20 12.77 7.45 12.70Q7.70 12.63 7.78 12.43Q7.87 12.22 7.87 11.80L7.87 11.80L7.87 8.54L2.77 8.54L2.77 11.80Q2.77 12.22 2.86 12.43Q2.94 12.63 3.19 12.70Q3.44 12.77 3.98 12.77L3.98 12.77Q4.00 12.77 4.00 12.85Q4.00 12.94 3.98 12.94L3.98 12.94Q3.53 12.94 3.26 12.92L3.26 12.92L2.18 12.91L1.19 12.92Q0.92 12.94 0.46 12.94L0.46 12.94Q0.43 12.94 0.43 12.85Q0.43 12.77 0.46 12.77L0.46 12.77Q0.98 12.77 1.23 12.70Q1.47 12.63 1.56 12.43Q1.65 12.22 1.65 11.80L1.65 11.80L1.65 5.32Q1.65 4.90 1.57 4.70Q1.48 4.51 1.25 4.43Q1.01 4.35 0.49 4.35L0.49 4.35Q0.45 4.35 0.45 4.27Q0.45 4.19 0.49 4.19L0.49 4.19L1.20 4.20Q1.79 4.23 2.18 4.23L2.18 4.23Q2.63 4.23 3.28 4.20L3.28 4.20L3.98 4.19Q4.00 4.19 4.00 4.27Q4.00 4.35 3.98 4.35L3.98 4.35Q3.46 4.35 3.21 4.44Q2.95 4.52 2.86 4.72Q2.77 4.93 2.77 5.35L2.77 5.35L2.77 8.22L7.87 8.22L7.87 5.35Q7.87 4.93 7.78 4.72Q7.69 4.52 7.44 4.44Q7.20 4.35 6.66 4.35L6.66 4.35Q6.62 4.35 6.62 4.27Q6.62 4.19 6.66 4.19L6.66 4.19L7.32 4.20Q7.97 4.23 8.43 4.23L8.43 4.23Q8.82 4.23 9.44 4.20L9.44 4.20L10.15 4.19Q10.19 4.19 10.19 4.27Q10.19 4.35 10.15 4.35L10.15 4.35Q9.63 4.35 9.39 4.43Q9.16 4.51 9.06 4.70Q8.97 4.90 8.97 5.32L8.97 5.32L8.97 11.80Q8.97 12.22 9.06 12.43Q9.16 12.63 9.39 12.70Q9.63 12.77 10.15 12.77L10.15 12.77ZM13.92 13.12Q13.09 13.12 12.46 12.72Q11.83 12.32 11.49 11.64Q11.14 10.96 11.14 10.16L11.14 10.16Q11.14 9.25 11.59 8.62Q12.04 7.98 12.74 7.67Q13.44 7.35 14.17 7.35L14.17 7.35Q14.99 7.35 15.62 7.76Q16.25 8.16 16.59 8.83Q16.93 9.49 16.93 10.23L16.93 10.23Q16.93 11.09 16.51 11.75Q16.10 12.40 15.41 12.76Q14.73 13.12 13.92 13.12L13.92 13.12ZM14.32 12.85Q15.02 12.85 15.40 12.31Q15.78 11.76 15.78 10.67L15.78 10.67Q15.78 9.76 15.50 9.06Q15.23 8.37 14.76 8.00Q14.28 7.63 13.69 7.63L13.69 7.63Q13.01 7.63 12.63 8.16Q12.26 8.68 12.26 9.70L12.26 9.70Q12.26 10.58 12.53 11.30Q12.80 12.03 13.27 12.44Q13.73 12.85 14.32 12.85L14.32 12.85ZM27.87 12.77Q27.92 12.77 27.92 12.85Q27.92 12.94 27.87 12.94L27.87 12.94Q27.52 12.94 27.33 12.92L27.33 12.92L26.54 12.91L25.77 12.92Q25.56 12.94 25.23 12.94L25.23 12.94Q25.20 12.94 25.20 12.85Q25.20 12.77 25.23 12.77L25.23 12.77Q25.75 12.77 25.91 12.58Q26.08 12.39 26.08 11.80L26.08 11.80L26.08 9.65Q26.08 8.83 25.80 8.45Q25.51 8.06 24.92 8.06L24.92 8.06Q24.51 8.06 24.11 8.27Q23.70 8.48 23.39 8.85L23.39 8.85L23.39 9.03L23.39 11.80Q23.39 12.39 23.55 12.58Q23.72 12.77 24.23 12.77L24.23 12.77Q24.28 12.77 24.28 12.85Q24.28 12.94 24.23 12.94L24.23 12.94Q23.90 12.94 23.69 12.92L23.69 12.92L22.92 12.91L22.15 12.92Q21.94 12.94 21.60 12.94L21.60 12.94Q21.56 12.94 21.56 12.85Q21.56 12.77 21.60 12.77L21.60 12.77Q22.11 12.77 22.27 12.58Q22.44 12.39 22.44 11.80L22.44 11.80L22.44 9.65Q22.44 8.83 22.16 8.45Q21.88 8.06 21.29 8.06L21.29 8.06Q20.90 8.06 20.51 8.26Q20.12 8.46 19.80 8.81L19.80 8.81L19.80 11.80Q19.80 12.39 19.96 12.58Q20.12 12.77 20.64 12.77L20.64 12.77Q20.68 12.77 20.68 12.85Q20.68 12.94 20.64 12.94L20.64 12.94Q20.30 12.94 20.09 12.92L20.09 12.92L19.32 12.91L18.54 12.92Q18.34 12.94 18.00 12.94L18.00 12.94Q17.96 12.94 17.96 12.85Q17.96 12.77 18.00 12.77L18.00 12.77Q18.51 12.77 18.67 12.58Q18.83 12.39 18.83 11.80L18.83 11.80L18.83 9.07Q18.83 8.61 18.73 8.41Q18.62 8.20 18.37 8.20L18.37 8.20Q18.10 8.20 17.63 8.40L17.63 8.40L17.60 8.40Q17.56 8.40 17.54 8.33Q17.51 8.26 17.56 8.25L17.56 8.25L19.29 7.42Q19.32 7.41 19.38 7.41L19.38 7.41Q19.52 7.41 19.65 7.72Q19.78 8.04 19.80 8.54L19.80 8.54Q20.76 7.38 21.85 7.38L21.85 7.38Q22.48 7.38 22.88 7.69Q23.27 8.01 23.37 8.61L23.37 8.61Q24.39 7.38 25.49 7.38L25.49 7.38Q26.24 7.38 26.64 7.81Q27.03 8.25 27.03 9.10L27.03 9.10L27.03 11.80Q27.03 12.21 27.10 12.41Q27.16 12.61 27.34 12.69Q27.51 12.77 27.87 12.77L27.87 12.77ZM33.33 12.11L33.35 12.11Q33.39 12.11 33.43 12.16Q33.46 12.21 33.43 12.25L33.43 12.25Q32.94 12.70 32.43 12.90Q31.92 13.10 31.33 13.10L31.33 13.10Q30.49 13.10 29.88 12.73Q29.27 12.36 28.96 11.75Q28.64 11.13 28.64 10.42L28.64 10.42Q28.64 9.59 29.04 8.90Q29.44 8.20 30.15 7.80Q30.86 7.41 31.71 7.41L31.71 7.41Q32.49 7.41 32.93 7.78Q33.36 8.15 33.36 8.79L33.36 8.79Q33.36 9.14 33.21 9.14L33.21 9.14L32.54 9.14L29.78 9.17Q29.72 9.45 29.72 9.86L29.72 9.86Q29.72 11.06 30.30 11.80Q30.88 12.54 31.91 12.54L31.91 12.54Q32.72 12.54 33.33 12.11L33.33 12.11ZM31.22 7.69Q30.70 7.69 30.34 8.02Q29.97 8.34 29.82 8.95L29.82 8.95L32.23 8.89Q32.21 8.33 31.95 8.01Q31.68 7.69 31.22 7.69L31.22 7.69ZM42.87 13.10Q41.34 13.10 40.21 12.52Q39.07 11.93 38.47 10.92Q37.87 9.91 37.87 8.67L37.87 8.67Q37.87 7.31 38.56 6.26Q39.26 5.21 40.47 4.62Q41.68 4.03 43.19 4.03L43.19 4.03Q43.86 4.03 44.50 4.16Q45.14 4.28 45.54 4.49L45.54 4.49Q45.65 4.56 45.68 4.62Q45.71 4.68 45.72 4.82L45.72 4.82L45.91 6.51Q45.91 6.55 45.83 6.56Q45.75 6.57 45.74 6.52L45.74 6.52Q45.37 5.49 44.55 4.93Q43.72 4.37 42.56 4.37L42.56 4.37Q40.91 4.37 40.01 5.38Q39.12 6.38 39.12 8.15L39.12 8.15Q39.12 9.52 39.65 10.59Q40.18 11.66 41.11 12.26Q42.04 12.87 43.22 12.87L43.22 12.87Q43.89 12.87 44.25 12.74Q44.62 12.61 44.79 12.25Q44.95 11.89 44.95 11.17L44.95 11.17Q44.95 10.44 44.86 10.16Q44.77 9.87 44.47 9.77Q44.17 9.67 43.43 9.67L43.43 9.67Q43.34 9.67 43.34 9.56L43.34 9.56Q43.34 9.52 43.37 9.48Q43.39 9.45 43.41 9.45L43.41 9.45Q44.53 9.52 45.23 9.52L45.23 9.52Q45.89 9.52 46.63 9.48L46.63 9.48Q46.66 9.48 46.68 9.51Q46.70 9.55 46.70 9.58L46.70 9.58Q46.70 9.67 46.63 9.67L46.63 9.67Q46.33 9.66 46.20 9.77Q46.07 9.87 46.04 10.19Q46.00 10.51 46.00 11.31L46.00 11.31Q46.00 11.94 46.05 12.21Q46.10 12.47 46.10 12.54L46.10 12.54Q46.10 12.63 46.07 12.65Q46.03 12.67 45.93 12.71L45.93 12.71Q44.21 13.10 42.87 13.10L42.87 13.10ZM53.02 12.18L53.03 12.18Q53.09 12.18 53.11 12.24Q53.13 12.31 53.07 12.33L53.07 12.33L51.63 13.02Q51.58 13.05 51.51 13.05L51.51 13.05Q51.32 13.05 51.16 12.82Q51.00 12.59 50.95 12.18L50.95 12.18L50.15 12.61Q49.35 13.03 48.82 13.03L48.82 13.03Q48.38 13.03 48.14 12.80Q47.89 12.57 47.89 12.19L47.89 12.19Q47.89 11.79 48.20 11.56Q48.50 11.34 49.31 11.06L49.31 11.06L50.92 10.50L50.92 9.37Q50.92 8.47 50.70 8.09Q50.48 7.70 50.08 7.70L50.08 7.70Q49.64 7.70 49.40 8.02Q49.15 8.33 49.10 8.83L49.10 8.83Q49.04 9.45 48.48 9.45L48.48 9.45Q48.23 9.45 48.09 9.32Q47.95 9.20 47.95 8.97L47.95 8.97Q47.95 8.64 48.39 8.27Q48.83 7.90 49.45 7.65Q50.06 7.41 50.55 7.41L50.55 7.41Q51.14 7.41 51.51 7.79Q51.87 8.18 51.87 8.95L51.87 8.95L51.87 11.42Q51.87 11.89 52.00 12.11Q52.14 12.33 52.42 12.33L52.42 12.33Q52.67 12.33 53.02 12.18L53.02 12.18ZM50.27 12.31L50.92 11.97L50.92 11.83L50.92 10.70L49.69 11.16Q49.35 11.28 49.20 11.45Q49.06 11.61 49.06 11.84L49.06 11.84Q49.06 12.14 49.22 12.31Q49.39 12.47 49.66 12.47L49.66 12.47Q49.97 12.47 50.27 12.31L50.27 12.31ZM63.56 12.77Q63.60 12.77 63.60 12.85Q63.60 12.94 63.56 12.94L63.56 12.94Q63.21 12.94 63.01 12.92L63.01 12.92L62.23 12.91L61.46 12.92Q61.25 12.94 60.91 12.94L60.91 12.94Q60.89 12.94 60.89 12.85Q60.89 12.77 60.91 12.77L60.91 12.77Q61.43 12.77 61.60 12.58Q61.77 12.39 61.77 11.80L61.77 11.80L61.77 9.65Q61.77 8.83 61.48 8.45Q61.19 8.06 60.61 8.06L60.61 8.06Q60.20 8.06 59.79 8.27Q59.39 8.48 59.08 8.85L59.08 8.85L59.08 9.03L59.08 11.80Q59.08 12.39 59.24 12.58Q59.40 12.77 59.92 12.77L59.92 12.77Q59.96 12.77 59.96 12.85Q59.96 12.94 59.92 12.94L59.92 12.94Q59.58 12.94 59.37 12.92L59.37 12.92L58.60 12.91L57.83 12.92Q57.62 12.94 57.29 12.94L57.29 12.94Q57.25 12.94 57.25 12.85Q57.25 12.77 57.29 12.77L57.29 12.77Q57.79 12.77 57.96 12.58Q58.13 12.39 58.13 11.80L58.13 11.80L58.13 9.65Q58.13 8.83 57.85 8.45Q57.57 8.06 56.98 8.06L56.98 8.06Q56.59 8.06 56.20 8.26Q55.80 8.46 55.48 8.81L55.48 8.81L55.48 11.80Q55.48 12.39 55.64 12.58Q55.80 12.77 56.32 12.77L56.32 12.77Q56.36 12.77 56.36 12.85Q56.36 12.94 56.32 12.94L56.32 12.94Q55.99 12.94 55.78 12.92L55.78 12.92L55.01 12.91L54.22 12.92Q54.03 12.94 53.69 12.94L53.69 12.94Q53.65 12.94 53.65 12.85Q53.65 12.77 53.69 12.77L53.69 12.77Q54.19 12.77 54.36 12.58Q54.52 12.39 54.52 11.80L54.52 11.80L54.52 9.07Q54.52 8.61 54.41 8.41Q54.31 8.20 54.05 8.20L54.05 8.20Q53.79 8.20 53.31 8.40L53.31 8.40L53.28 8.40Q53.24 8.40 53.22 8.33Q53.20 8.26 53.24 8.25L53.24 8.25L54.98 7.42Q55.01 7.41 55.06 7.41L55.06 7.41Q55.20 7.41 55.34 7.72Q55.47 8.04 55.48 8.54L55.48 8.54Q56.45 7.38 57.54 7.38L57.54 7.38Q58.17 7.38 58.56 7.69Q58.95 8.01 59.05 8.61L59.05 8.61Q60.07 7.38 61.18 7.38L61.18 7.38Q61.92 7.38 62.32 7.81Q62.72 8.25 62.72 9.10L62.72 9.10L62.72 11.80Q62.72 12.21 62.78 12.41Q62.85 12.61 63.02 12.69Q63.20 12.77 63.56 12.77L63.56 12.77ZM69.02 12.11L69.03 12.11Q69.08 12.11 69.11 12.16Q69.15 12.21 69.12 12.25L69.12 12.25Q68.63 12.70 68.12 12.90Q67.61 13.10 67.02 13.10L67.02 13.10Q66.18 13.10 65.57 12.73Q64.96 12.36 64.65 11.75Q64.33 11.13 64.33 10.42L64.33 10.42Q64.33 9.59 64.73 8.90Q65.13 8.20 65.84 7.80Q66.54 7.41 67.40 7.41L67.40 7.41Q68.18 7.41 68.61 7.78Q69.05 8.15 69.05 8.79L69.05 8.79Q69.05 9.14 68.89 9.14L68.89 9.14L68.22 9.14L65.46 9.17Q65.41 9.45 65.41 9.86L65.41 9.86Q65.41 11.06 65.99 11.80Q66.57 12.54 67.59 12.54L67.59 12.54Q68.40 12.54 69.02 12.11L69.02 12.11ZM66.91 7.69Q66.39 7.69 66.02 8.02Q65.66 8.34 65.51 8.95L65.51 8.95L67.91 8.89Q67.90 8.33 67.63 8.01Q67.37 7.69 66.91 7.69L66.91 7.69ZM73.56 7.41Q73.88 7.41 74.16 7.59Q74.44 7.78 74.44 8.05L74.44 8.05Q74.44 8.26 74.30 8.41Q74.16 8.55 73.92 8.55L73.92 8.55Q73.78 8.55 73.68 8.50Q73.58 8.46 73.51 8.39Q73.44 8.33 73.42 8.32L73.42 8.32Q73.30 8.20 73.20 8.14Q73.09 8.08 72.94 8.08L72.94 8.08Q72.77 8.08 72.58 8.21Q72.38 8.34 71.99 8.79L71.99 8.79L71.99 11.80Q71.99 12.21 72.09 12.41Q72.20 12.61 72.48 12.69Q72.76 12.77 73.32 12.77L73.32 12.77Q73.36 12.77 73.36 12.85Q73.36 12.94 73.32 12.94L73.32 12.94Q72.86 12.94 72.58 12.92L72.58 12.92L71.51 12.91L70.73 12.92Q70.53 12.94 70.20 12.94L70.20 12.94Q70.15 12.94 70.15 12.85Q70.15 12.77 70.20 12.77L70.20 12.77Q70.70 12.77 70.86 12.58Q71.02 12.39 71.02 11.80L71.02 11.80L71.02 9.07Q71.02 8.61 70.92 8.41Q70.81 8.20 70.56 8.20L70.56 8.20Q70.29 8.20 69.82 8.40L69.82 8.40L69.79 8.40Q69.75 8.40 69.73 8.33Q69.71 8.26 69.75 8.25L69.75 8.25L71.48 7.42Q71.51 7.41 71.57 7.41L71.57 7.41Q71.71 7.41 71.84 7.71Q71.97 8.02 71.99 8.53L71.99 8.53Q72.56 7.88 72.91 7.64Q73.25 7.41 73.56 7.41L73.56 7.41Z"></path></g><!----><g data-v-423bf9ae="" id="c380ef21-df0a-493d-8934-22e4b674184d" transform="matrix(1.0568064451217651,0,0,1.0568064451217651,-228.73101806640625,-220.0984344482422)" stroke="none" fill="white"><path d="M256.412 254.923c-1.99-1.389-3.87-2.7-5.448-4.338-1.199-1.245-2.003-2.484-2.457-3.785a2.372 2.372 0 00-1.577-1.666 2.44 2.44 0 00-1.481.004 2.357 2.357 0 00-1.563 1.659c-.46 1.304-1.268 2.543-2.465 3.787-1.579 1.638-3.457 2.95-5.445 4.338-1.871 1.307-3.806 2.658-5.48 4.314-2.92 2.881-4.339 6.056-4.339 9.705 0 3.163 1.231 6.137 3.466 8.372a11.778 11.778 0 008.38 3.465c1.656 0 3.29-.346 4.79-1.008-1.104 2.192-3.12 3.267-6.104 3.267a2.388 2.388 0 00-2.39 2.383 2.393 2.393 0 002.39 2.39h19.008a2.392 2.392 0 002.39-2.39 2.388 2.388 0 00-2.39-2.383c-2.979 0-4.993-1.073-6.1-3.267a11.905 11.905 0 004.793 1.008c3.163 0 6.136-1.23 8.371-3.466a11.76 11.76 0 003.475-8.371c0-3.642-1.419-6.815-4.34-9.704-1.674-1.656-3.612-3.007-5.484-4.314zm4.891 20.932a9.715 9.715 0 01-6.913 2.862 9.81 9.81 0 01-4.88-1.298c-.371-.22-.737-.467-1.088-.734a1.034 1.034 0 00-1.164-.06 1.035 1.035 0 00-.476 1.064c.884 4.848 3.966 7.409 8.915 7.409.178 0 .328.147.328.321 0 .178-.15.328-.328.328h-19.008a.332.332 0 01-.328-.328c0-.174.15-.321.328-.321 4.957 0 8.039-2.563 8.914-7.41a1.03 1.03 0 00-1.64-1.003c-.379.288-.732.527-1.077.729a9.769 9.769 0 01-4.884 1.304 9.73 9.73 0 01-6.921-2.862 9.714 9.714 0 01-2.861-6.913c0-3.111 1.184-5.729 3.726-8.238 1.55-1.533 3.411-2.833 5.211-4.09 1.981-1.384 4.031-2.815 5.75-4.599 1.422-1.477 2.384-2.976 2.942-4.583.011-.033.021-.067.029-.101.016-.067.063-.186.192-.227a.412.412 0 01.235-.006.316.316 0 01.208.231c.008.034.017.066.028.098.551 1.608 1.512 3.108 2.937 4.588 1.718 1.783 3.77 3.214 5.752 4.598 1.803 1.257 3.666 2.558 5.215 4.089 2.542 2.517 3.727 5.136 3.727 8.239a9.711 9.711 0 01-2.869 6.913z"></path><path d="M294.973 271.946l-14.672-58.083a7.133 7.133 0 00-3.286-4.402 7.125 7.125 0 00-5.433-.803l-43.05 10.875a7.12 7.12 0 00-4.402 3.286 7.126 7.126 0 00-.801 5.434l.263 1.041c-3.772.21-6.777 3.344-6.777 7.168v59.908c0 3.96 3.221 7.181 7.18 7.181h44.402c3.959 0 7.181-3.221 7.181-7.181v-12.12l14.19-3.584c3.838-.97 6.173-4.881 5.205-8.72zm-21.459 24.424a5.122 5.122 0 01-5.117 5.117h-44.402a5.122 5.122 0 01-5.117-5.117v-59.908a5.122 5.122 0 015.117-5.117h44.402a5.122 5.122 0 015.117 5.117v59.908zm15.749-17.704l-13.686 3.457v-45.661c0-3.959-3.222-7.18-7.181-7.18h-42.681l-.387-1.534a5.086 5.086 0 01.573-3.872 5.074 5.074 0 013.135-2.342l43.05-10.875a5.078 5.078 0 013.87.574 5.087 5.087 0 012.345 3.136l14.67 58.083a5.125 5.125 0 01-3.708 6.214z"></path></g><!----></svg>